<svg preserveAspectRatio="none" overflow="visible" style="display: block;" width="15.4667" height="18.6889" viewBox="0 0 15.4667 18.6889" fill="none" xmlns="http://www.w3.org/2000/svg">
<path id="Vector" d="M15.4186 9.15634C15.3709 9.06933 15.2911 9.00268 15.1953 8.97253C15.195 8.97242 15.1948 8.9723 15.1945 8.97219C15.19 8.97015 15.1857 8.96823 15.1812 8.96648C15.1793 8.96563 15.1773 8.96467 15.1752 8.96388C9.45106 6.65874 6.01151 4.41505 4.13405 2.93878C2.14623 1.37555 1.44481 0.321644 1.4102 0.268465C1.01925 -0.359215 0.0876633 0.228694 0.478495 0.856373C0.502884 0.895578 0.994135 1.67086 2.35078 2.88492C2.22777 3.05153 2.06425 3.28353 1.88055 3.57245C1.69679 3.8612 1.49286 4.20681 1.28871 4.60027C1.27747 4.62171 1.26634 4.64344 1.25533 4.66516C0.898211 5.36254 0.612294 6.07276 0.405049 6.77664C0.14914 7.64623 0.0131495 8.50937 0 9.34444C0.0131495 10.1796 0.14914 11.0427 0.405049 11.9122C0.612294 12.6162 0.898211 13.3264 1.25533 14.0238C1.26634 14.0455 1.27747 14.0672 1.28871 14.0887C1.49286 14.4821 1.69679 14.8277 1.88055 15.1165C2.06425 15.4054 2.22777 15.6374 2.35078 15.804C0.994135 17.0181 0.502884 17.7933 0.478495 17.8326C0.0876633 18.4602 1.01925 19.0481 1.4102 18.4204C1.44481 18.3673 2.14623 17.3134 4.13405 15.7502C6.01151 14.2738 9.45106 12.0302 15.1752 9.72507C15.1773 9.72422 15.1793 9.72326 15.1812 9.72247C15.1857 9.72065 15.19 9.71879 15.1945 9.71669C15.1946 9.71664 15.1947 9.71664 15.1947 9.71658C15.1947 9.71658 15.1948 9.71656 15.1949 9.71653C15.2909 9.68643 15.3709 9.61967 15.4187 9.53249C15.4492 9.47677 15.4667 9.41261 15.4667 9.34444C15.4667 9.27627 15.4492 9.21206 15.4186 9.15634ZM3.75789 13.5577C3.48653 14.0836 3.21303 14.5194 2.99814 14.8345C2.78336 14.5194 2.50975 14.0836 2.23839 13.5577C2.11364 13.316 1.98316 13.0427 1.85666 12.743V12.7429C2.25059 11.759 2.56117 10.5948 2.58196 9.34444C2.56117 8.09418 2.25059 6.92984 1.85666 5.94604V5.94592C1.98316 5.6462 2.11364 5.37289 2.23839 5.13116C2.50975 4.60531 2.78336 4.16952 2.99814 3.85436C3.21303 4.16952 3.48653 4.60531 3.75789 5.13116C4.27072 6.1252 4.87925 7.65279 4.91004 9.34444C4.87925 11.0362 4.27072 12.5637 3.75789 13.5577ZM7.73679 12.044C6.68314 12.6432 5.7062 13.2557 4.81642 13.8745C5.13842 13.225 5.39876 12.5662 5.59123 11.9122C5.84708 11.0427 5.98313 10.1796 5.99617 9.34444C5.98313 8.50937 5.84708 7.64623 5.59123 6.77664C5.39876 6.12277 5.13842 5.46392 4.81642 4.8144C5.7062 5.4332 6.68314 6.04566 7.73679 6.64494C9.38064 7.57964 11.2174 8.48476 13.2134 9.34444C11.2174 10.2042 9.38064 11.1092 7.73679 12.044Z" fill="white"/>
</svg>
